<svg xmlns="http://www.w3.org/2000/svg" width="32" height="32" viewBox="0 0 32 32">
<g>
	<path fill="#FFF" d="M16,19.2c1.8,0,3.2-1.4,3.2-3.2c0-0.7-0.2-1.3-0.6-1.9c-0.6-0.8-1.5-1.3-2.6-1.3c-1.1,0-2,0.5-2.6,1.3 c-0.4,0.5-0.6,1.2-0.6,1.9C12.8,17.8,14.2,19.2,16,19.2z"></path>
	<polygon fill="#FFF"  points="23,12.1 23,9.4 23,9 22.6,9 19.9,9 19.9,12.1"></polygon>
	<path fill="#FFF"  d="M16,0C7.2,0,0,7.2,0,16s7.2,16,16,16s16-7.2,16-16S24.8,0,16,0z M25.1,14.1v7.5c0,1.9-1.6,3.5-3.5,3.5H10.4 c-1.9,0-3.5-1.6-3.5-3.5v-7.5v-3.7c0-1.9,1.6-3.5,3.5-3.5h11.2c1.9,0,3.5,1.6,3.5,3.5C25.1,10.4,25.1,14.1,25.1,14.1z"/>
	<path fill="#FFF" d="M21,16c0,2.7-2.2,5-5,5s-5-2.2-5-5c0-0.7,0.1-1.3,0.4-1.9H8.7v7.5c0,1,0.8,1.7,1.7,1.7h11.2 c1,0,1.7-0.8,1.7-1.7v-7.5h-2.7C20.8,14.7,21,15.3,21,16z"></path>
</g>
</svg>