<svg xmlns="http://www.w3.org/2000/svg" width="32" height="32" viewBox="0 0 32 32"><g fill="#FFF"><path d="M16 19.2c1.8 0 3.2-1.4 3.2-3.2 0-.7-.2-1.3-.6-1.9-.6-.8-1.5-1.3-2.6-1.3s-2 .5-2.6 1.3c-.4.5-.6 1.2-.6 1.9 0 1.8 1.4 3.2 3.2 3.2zM23 12.1V9h-3.1v3.1z"/><path d="M16 0C7.2 0 0 7.2 0 16s7.2 16 16 16 16-7.2 16-16S24.8 0 16 0zm9.1 14.1v7.5c0 1.9-1.6 3.5-3.5 3.5H10.4c-1.9 0-3.5-1.6-3.5-3.5V10.4c0-1.9 1.6-3.5 3.5-3.5h11.2c1.9 0 3.5 1.6 3.5 3.5v3.7z"/><path d="M21 16c0 2.7-2.2 5-5 5s-5-2.2-5-5c0-.7.1-1.3.4-1.9H8.7v7.5c0 1 .8 1.7 1.7 1.7h11.2c1 0 1.7-.8 1.7-1.7v-7.5h-2.7c.2.6.4 1.2.4 1.9z"/></g></svg>