<svg xmlns="http://www.w3.org/2000/svg"><symbol id="htmlacademy" viewBox="0 0 60 60"><path fill="#ffc600" d="M30.2 5H30L10.3 7.1v36.2L30 55l19.7-11.7V7.1L30.2 5zm17 36.8L30 52 12.8 41.8V27l17.1 10.2V39l-11.7-7v1.8L30 40.9v1.9l-11.8-7v1.8l11.8 7 11.9-7.1v-7.6l5.3-3.2v15.1zm-.1-17l-4.7 2.8-2.2 1.3-10.3-6.1v1.8l8.8 5.3h-.1l-.2.1-1.3.7-7.3-4.3v1.8l5.8 3.4-1.4.9-4.3-2.6v1.8l2.9 1.7-2.9 1.7-17-10.1 17-10.2 17.2 10zm.1-1.8L29.9 12.8 12.8 23V9.4L30 7.6l17.2 1.8V23z"/></symbol><symbol id="icon-cart" viewBox="0 0 12 12"><path d="M11.864 3.017a.429.429 0 0 0-.327-.154H9.225V4.09c0 .563-.484 1.022-1.08 1.022-.594 0-1.078-.458-1.078-1.022V2.863H4.909V4.09c0 .563-.485 1.022-1.08 1.022-.595 0-1.078-.458-1.078-1.022V2.863H.438a.43.43 0 0 0-.327.154.472.472 0 0 0-.108.358l.776 7.134c.015.806.642 1.455 1.411 1.455h7.595c.77 0 1.396-.649 1.411-1.455l.776-7.134a.476.476 0 0 0-.108-.358z"/><path d="M3.829 4.499c.239 0 .433-.184.433-.409V1.84c0-.632.672-1.022 1.295-1.022h1.079c.655 0 1.078.401 1.078 1.022v2.25c0 .225.194.409.431.409.239 0 .433-.184.433-.409V1.84C8.577.773 7.761 0 6.636 0H5.557c-1.19 0-2.159.826-2.159 1.84v2.25c0 .225.194.409.431.409z"/></symbol><symbol id="icon-checkbox__off" viewBox="0 0 23 23"><path d="M20 2c.542 0 1 .458 1 1v17c0 .542-.458 1-1 1H3c-.542 0-1-.458-1-1V3c0-.542.458-1 1-1h17m0-2H3C1.35 0 0 1.35 0 3v17c0 1.65 1.35 3 3 3h17c1.65 0 3-1.35 3-3V3c0-1.65-1.35-3-3-3z"/></symbol><symbol id="icon-checkbox__on" viewBox="0 0 27 23"><path d="M7.285 7.486l-2.829 2.829 7.783 7.783L26.171 4.166l-2.828-2.829-11.104 11.102z"/><path d="M21 20c0 .542-.458 1-1 1H3c-.542 0-1-.458-1-1V3c0-.542.458-1 1-1h16.908L21.493.415A2.96 2.96 0 0 0 20 0H3C1.35 0 0 1.35 0 3v17c0 1.65 1.35 3 3 3h17c1.65 0 3-1.35 3-3v-9.829l-2 2V20z"/></symbol><symbol id="icon-compare" viewBox="0 0 10 10"><path d="M8 2h1.984v8H8zM0 3h1.984v7H0zm4-3h2v10H4z"/></symbol><symbol id="icon-credit" viewBox="0 0 156 188"><g fill="#FFF"><circle cx="141.25" cy="68.877" r="14.75"/><path d="M89.113 139.544l-7.074 17.875-22.824 14.917a7.16 7.16 0 0 0-3.634 6.23 7.167 7.167 0 0 0 7.167 7.167 7.121 7.121 0 0 0 4.121-1.31c3.761-2.371 22.351-14.084 25.495-15.88 3.5-2 4.125-5.125 4.125-5.125l4.875-16-5.75-2.625c-5.75-2.625-6.501-5.249-6.501-5.249z"/><path d="M139.321 141.462s-1.158-3.834-4.579-5.167-18.087-7.75-18.087-7.75l15.416-25.584s3.834-9-.333-13.417-13.75-9.75-13.75-9.75h-7.521l15.799-26.801c3.354-5.686 1.443-13.081-4.242-16.432L72.633 7.447c-5.686-3.352-13.079-1.442-16.431 4.244L9.144 91.519c-3.351 5.685-1.442 13.08 4.244 16.432l49.39 29.113c5.686 3.352 13.081 1.441 16.432-4.242l22.934-38.903h8.096l-14.75 26.209s-5.134 9.214-.334 14.25c4.209 4.416 12.667 6.916 12.667 6.916l17.25 6.501 5.101 31.291.009-.001c.549 3.413 3.499 6.023 7.067 6.023a7.166 7.166 0 0 0 7.166-7.167c0-.189-.014-.375-.028-.56l.028-.004-5.095-35.915zM17.958 100.198c-1.401-.826-1.887-2.708-1.061-4.108l47.059-79.829c.826-1.401 2.707-1.888 4.107-1.062l11.521 6.792-50.104 84.998-11.522-6.791zm53.498 28.054c-.826 1.4-2.707 1.887-4.107 1.061l-30.116-17.754L87.34 26.563l30.113 17.753c1.402.826 1.887 2.707 1.062 4.107l-18.493 31.372h-8.783L71.323 94.222a7.155 7.155 0 0 0-1.23.891l-.031.022.002.003a7.142 7.142 0 0 0-2.358 5.304 7.167 7.167 0 0 0 7.167 7.167 7.121 7.121 0 0 0 4.149-1.331l.002.003.071-.058c.182-.133.356-.273.524-.423l9.66-7.784-17.823 30.236z"/></g><path fill="#F0C42E" d="M49.219 5.943L2.161 85.772c-3.351 5.685-1.442 13.08 4.244 16.432l49.39 29.113c5.686 3.352 13.081 1.441 16.432-4.242l47.057-79.829c3.354-5.686 1.443-13.081-4.242-16.432L65.65 1.7C59.965-1.652 52.571.258 49.219 5.943zm-39.305 84.4l47.059-79.829c.826-1.401 2.707-1.888 4.107-1.062l11.521 6.792-50.105 84.998-11.522-6.791c-1.4-.826-1.886-2.708-1.06-4.108zm101.617-47.667l-47.059 79.829c-.826 1.4-2.707 1.887-4.107 1.061l-30.116-17.754 50.106-84.996 30.113 17.753c1.403.825 1.887 2.706 1.063 4.107z"/><g fill="#3A3A3A"><circle cx="135.25" cy="63.083" r="14.75"/><path d="M81.875 133.75l-7.074 17.875-22.825 14.917a7.16 7.16 0 0 0-3.634 6.23 7.167 7.167 0 0 0 7.167 7.167 7.121 7.121 0 0 0 4.121-1.31c3.761-2.371 22.351-14.084 25.495-15.88 3.5-2 4.125-5.125 4.125-5.125l4.875-16-5.75-2.625c-5.75-2.625-6.5-5.249-6.5-5.249zm50.208 1.918s-1.158-3.834-4.579-5.167-18.087-7.75-18.087-7.75l15.416-25.584s3.834-9-.333-13.417S110.75 74 110.75 74H84L64.085 88.427a7.208 7.208 0 0 0-1.23.891l-.031.022.002.003a7.14 7.14 0 0 0-2.358 5.303 7.167 7.167 0 0 0 7.167 7.167 7.121 7.121 0 0 0 4.149-1.331l.002.003.071-.058c.182-.133.357-.273.525-.423l14.743-11.881H103l-14.75 26.209s-5.134 9.214-.334 14.25c4.209 4.416 12.667 6.916 12.667 6.916l17.25 6.501 5.101 31.291.009-.001c.549 3.413 3.499 6.023 7.067 6.023a7.166 7.166 0 0 0 7.166-7.167c0-.189-.014-.375-.028-.56l.028-.004-5.093-35.913z"/></g></symbol><symbol id="icon-delivery" viewBox="0 0 136 164"><path d="M93.133 38.767c8.121 0 14.945-5.542 16.9-13.049l5.467.814a2.159 2.159 0 0 0 2.451-1.816 2.157 2.157 0 0 0-1.816-2.451l-5.541-.825c.002-.046.004-.091.004-.138 0-.182-.006-.362-.014-.542 0 0-.451-6.518-1.074-9.237-.621-2.719-2.535-3.296-2.535-3.296-9.77-2.212-19.772-2.438-22.375-2.438s-3.158 1.332-3.158 1.332l-3.15 4.996-.01-.003c-.076.122-.146.245-.219.368l-.027.043a17.387 17.387 0 0 0-2.367 8.777c-.001 9.646 7.819 17.465 17.464 17.465zm38.402 39.309v-.002l-26.742-2.168-9.246-21.112s-.461-2.774-6.008-8.476c-5.549-5.702-16.799-3.39-16.799-3.39s-23.886 4.469-31.745 6.318c-7.86 1.85-8.168 9.863-8.168 9.863l-.632 4.519-15.178-2.941a3.012 3.012 0 0 0-3.516 2.374L6.09 101.303a3.008 3.008 0 0 0 2.375 3.516l51.196 9.923c.115.022.23.024.346.033h.002c-.728.104-1.291-.035-1.291-.035l-9.4-1.849-3.082 17.105-23.56 20.363a7.43 7.43 0 1 0 9.857 11.086s27.725-22.05 29.575-23.591c1.85-1.54 2.773-3.853 2.773-3.853s4.541-13.948 5.779-16.874c.848-2.004 4.932-1.079 4.932-1.079l22.885 8.631 7.615 29.062c.082.63.242 1.234.473 1.804h.002a7.428 7.428 0 0 0 14.112-4.512c-.842-4.965-4.604-27.046-5.561-31.826-1.078-5.394-4.621-6.934-4.621-6.934s-21.268-11.558-22.654-12.329c-1.387-.77-1.078-2.774-1.078-2.774l3.93-14.331 2.773 5.856s1.619 3.274 4.084 3.391l33.357.82a7.43 7.43 0 0 0 7.43-7.431 7.43 7.43 0 0 0-6.804-7.399zM60.104 62.807l-1.789 5.88 9.898 1.919-20.214-3.917.548-2.496 11.557-1.386zm-2.249 45.473l-45.304-8.781 6.27-32.353 12.542 2.431-1.618 11.567-.64 4.406c-.005.026-.008.056-.012.082l-.018.127h.002a7.43 7.43 0 0 0 7.367 8.38 7.428 7.428 0 0 0 7.368-8.366l2.901-13.223 17.413 3.374-6.271 32.356zM25.05 17.008h38.027c1.1 0 2-.896 2-1.99 0-1.094-.9-1.99-2-1.99H25.05c-1.1 0-2 .896-2 1.99 0 1.094.9 1.99 2 1.99zm13.03 6.017c-1.1 0-2 .896-2 1.99 0 1.094.9 1.99 2 1.99h22.959c1.1 0 2-.896 2-1.99a2 2 0 0 0-2-1.99H38.08z" fill="#FFF"/><path fill="#3A3A3A" d="M87.098 32.732c8.121 0 14.945-5.542 16.9-13.049l5.467.814a2.159 2.159 0 0 0 2.451-1.816 2.157 2.157 0 0 0-1.816-2.451l-5.541-.825c.002-.046.004-.091.004-.138 0-.182-.006-.362-.014-.542 0 0-.451-6.518-1.074-9.237-.621-2.719-2.535-3.296-2.535-3.296C91.17-.02 81.168-.246 78.564-.246s-3.158 1.332-3.158 1.332l-3.15 4.996-.01-.003c-.076.121-.146.245-.219.368L72 6.49a17.387 17.387 0 0 0-2.367 8.777c0 9.646 7.82 17.465 17.465 17.465zM125.5 72.041v-.002l-26.742-2.168-9.246-21.112s-.461-2.774-6.008-8.476c-5.549-5.702-16.799-3.39-16.799-3.39S42.819 41.362 34.96 43.21c-7.86 1.85-8.168 9.863-8.168 9.863L23.71 75.109l-.64 4.406c-.005.026-.008.056-.012.082l-.018.127h.002a7.43 7.43 0 0 0 7.367 8.38 7.428 7.428 0 0 0 7.368-8.366l4.734-21.581 11.557-1.386-1.789 5.88 9.898 1.919a3.01 3.01 0 0 1 2.375 3.517L57.14 106.33a3.012 3.012 0 0 1-2.948 2.43c-.072 0-.146-.016-.22-.021-.728.104-1.291-.035-1.291-.035l-9.4-1.849-3.082 17.105-23.56 20.363a7.43 7.43 0 1 0 9.857 11.086s27.725-22.05 29.575-23.591c1.85-1.54 2.773-3.853 2.773-3.853s4.541-13.948 5.779-16.874c.848-2.004 4.932-1.079 4.932-1.079l22.885 8.631 7.615 29.062c.082.63.242 1.234.473 1.804h.002a7.428 7.428 0 0 0 14.112-4.512c-.842-4.965-4.604-27.046-5.561-31.826-1.078-5.394-4.621-6.934-4.621-6.934S83.193 94.682 81.807 93.91c-1.387-.77-1.078-2.774-1.078-2.774l3.93-14.331 2.773 5.856s1.619 3.274 4.084 3.391l33.357.82a7.43 7.43 0 0 0 .627-14.831z"/><path fill="#F0C42E" d="M53.971 108.739h.002c.073.006.147.021.22.021 1.407 0 2.671-1 2.948-2.43l7.412-38.243a3.01 3.01 0 0 0-2.375-3.517l-20.214-3.917-1.286 5.862 17.413 3.374-6.271 32.354-45.304-8.779 6.27-32.353 12.542 2.431.832-5.95-15.178-2.942a3.012 3.012 0 0 0-3.516 2.374L.055 95.268a3.008 3.008 0 0 0 2.375 3.516l51.196 9.923c.114.022.229.023.345.032z"/><path fill="#F0C52E" d="M59.042 8.982a2 2 0 0 1-2 1.99H19.015c-1.1 0-2-.896-2-1.99 0-1.094.9-1.99 2-1.99h38.027c1.1.001 2 .896 2 1.99zm-2.038 9.998c0 1.094-.9 1.99-2 1.99h-22.96c-1.1 0-2-.896-2-1.99a2 2 0 0 1 2-1.99h22.959c1.101 0 2.001.896 2.001 1.99z"/></symbol><symbol id="icon-down-dir" viewBox="0 0 11 10"><path fill="#231F20" d="M5.5 10L0 0h11"/></symbol><symbol id="icon-fb" viewBox="0 0 32 32"><path fill="#FFF" d="M16 0C7.164 0 0 7.163 0 16s7.164 16 16 16c8.837 0 16-7.164 16-16S24.837 0 16 0zm4.062 9.455h-3.021v3.444h3.021v3.445h-3.021v8.61H14.02v-8.61H11v-3.445h3.021V9.455c0-1.902 1.353-3.445 3.021-3.445h3.021v3.445z"/></symbol><symbol id="icon-filter" viewBox="0 0 20 23"><path opacity=".3" fill="#ABABAB" d="M10 20C4.477 20 0 15.522 0 10v2c0 5.522 4.477 10 10 10 5.522 0 10-4.478 10-10v-2c0 5.522-4.478 10-10 10z"/><circle fill="#FFF" cx="10" cy="10" r="10"/><circle fill="#ABABAB" cx="10" cy="10" r="2"/></symbol><symbol id="icon-insta" viewBox="0 0 32 32"><g fill="#FFF"><path d="M16 19.2c1.8 0 3.2-1.4 3.2-3.2 0-.7-.2-1.3-.6-1.9-.6-.8-1.5-1.3-2.6-1.3s-2 .5-2.6 1.3c-.4.5-.6 1.2-.6 1.9 0 1.8 1.4 3.2 3.2 3.2zm7-7.1V9h-3.1v3.1z"/><path d="M16 0C7.2 0 0 7.2 0 16s7.2 16 16 16 16-7.2 16-16S24.8 0 16 0zm9.1 14.1v7.5c0 1.9-1.6 3.5-3.5 3.5H10.4c-1.9 0-3.5-1.6-3.5-3.5V10.4c0-1.9 1.6-3.5 3.5-3.5h11.2c1.9 0 3.5 1.6 3.5 3.5v3.7z"/><path d="M21 16c0 2.7-2.2 5-5 5s-5-2.2-5-5c0-.7.1-1.3.4-1.9H8.7v7.5c0 1 .8 1.7 1.7 1.7h11.2c1 0 1.7-.8 1.7-1.7v-7.5h-2.7c.2.6.4 1.2.4 1.9z"/></g></symbol><symbol id="icon-search" viewBox="0 0 16 16"><path d="M15.7 14.3l-3.104-3.104A6.979 6.979 0 0 0 14 7a7 7 0 1 0-7 7 6.963 6.963 0 0 0 4.193-1.404L14.3 15.7c.185.184.38.3.7.3a1 1 0 0 0 1-1 .93.93 0 0 0-.3-.7zM2 7c0-2.762 2.238-5 5-5s5 2.238 5 5-2.238 5-5 5-5-2.238-5-5z"/></symbol><symbol id="icon-tick" viewBox="0 0 12 7"><path d="M11.798.267a.752.752 0 0 0-1.061-.122L4.389 5.228 1.247 2.352a.752.752 0 0 0-1.066.051.764.764 0 0 0 .05 1.074l3.618 3.309c.038.035.083.053.125.078.03.019.055.04.086.054a.753.753 0 0 0 .296.066.713.713 0 0 0 .274-.058c.029-.01.053-.028.08-.042.04-.022.081-.036.117-.064l6.85-5.485a.764.764 0 0 0 .121-1.068z"/></symbol><symbol id="icon-twitter" viewBox="0 0 32 32"><path fill="#FFF" d="M16 0C7.164 0 0 7.164 0 16c0 8.837 7.164 16 16 16 8.837 0 16-7.163 16-16 0-8.836-7.163-16-16-16zm7.944 12.809c-.251 6.516-3.463 10.832-10.992 10.702h-.486c-.447 0-4.543-.443-5.344-1.823 2.479.19 4.247-.406 5.12-1.136-1.048-.289-2.923-.461-3.251-2.848.384.104.618.221 1.299.113-1.307-.824-2.758-1.519-2.679-3.643.311.317 1.164.518 1.46.457-.768-.233-2.149-3.244-.974-4.781 1.984 1.79 4.075 3.482 7.804 3.643.227-2.214 1.24-3.699 3.168-4.325 1.84-.479 3.255.26 3.901 1.138.737-.224 1.453-.466 2.193-.685-.004.833-.569 1.463-.935 1.709.747.165 1.423-.475 1.423-.475-.184.963-1.094 1.725-1.707 1.954z"/></symbol><symbol id="icon-up-dir" viewBox="0 0 11 10"><path fill="#231F20" d="M5.5 0L0 10h11z"/></symbol><symbol id="icon-user" viewBox="0 0 13 12"><path fill="#272525" d="M.032 12h12.937c-.163-2.643-2.074-4.837-4.671-5.543a3.47 3.47 0 0 0 1.687-2.972 3.485 3.485 0 0 0-6.97 0c0 1.264.68 2.361 1.688 2.972C2.106 7.163.194 9.357.032 12z"/></symbol><symbol id="icon-vk" viewBox="0 0 32 32"><g fill="#FFF"><path d="M16.637 14.495c.402-.019.719-.082.951-.188.326-.145.54-.33.641-.559.101-.229.15-.496.15-.797 0-.232-.058-.465-.174-.697-.116-.232-.322-.405-.617-.517-.264-.1-.592-.155-.984-.165a76.242 76.242 0 0 0-1.652-.014h-.339v2.965h.565c.571 0 1.057-.009 1.459-.028zm1.481 2.589c-.282-.081-.672-.125-1.166-.132a127.97 127.97 0 0 0-1.55-.009h-.79v3.493h.264c1.014 0 1.74-.003 2.18-.009a3.2 3.2 0 0 0 1.212-.245c.377-.157.633-.364.774-.625s.214-.562.214-.9c0-.446-.088-.788-.261-1.03-.17-.241-.464-.423-.877-.543z"/><path d="M16 0C7.164 0 0 7.164 0 16c0 8.837 7.164 16 16 16 8.837 0 16-7.163 16-16 0-8.836-7.163-16-16-16zm6.602 20.531a3.73 3.73 0 0 1-1.124 1.327c-.552.415-1.161.71-1.823.886s-1.501.264-2.519.264h-6.121V8.987h5.443c1.13 0 1.957.038 2.48.113a5.126 5.126 0 0 1 1.561.5c.533.27.929.632 1.189 1.087.26.455.392.975.392 1.558 0 .678-.179 1.278-.536 1.795-.358.518-.863.92-1.517 1.208v.075c.917.182 1.642.559 2.179 1.13.537.571.807 1.325.807 2.261 0 .678-.138 1.283-.411 1.817z"/></g></symbol><symbol id="menu-close" viewBox="0 0 23 22"><path d="M22.979 20.569l-9.99-9.574 9.989-9.573-1.487-1.425-9.988 9.573L1.516-.003.029 1.422l9.987 9.573-9.988 9.574 1.488 1.425 9.987-9.574 9.989 9.574z"/></symbol><symbol id="modal-close" viewBox="0 0 55 55"><path fill="#F0C52E" d="M27.5 0C12.312 0 0 12.312 0 27.5S12.312 55 27.5 55 55 42.688 55 27.5 42.688 0 27.5 0zm11.476 37.072l-1.486 1.426-9.99-9.574-9.987 9.574-1.488-1.426 9.988-9.573-9.987-9.573 1.487-1.425 9.987 9.573 9.988-9.573 1.487 1.425-9.989 9.574 9.99 9.572z"/></symbol><symbol id="nav-arrow" viewBox="0 0 4 7"><path d="M3.83 3.132L.861.144a.5.5 0 0 0-.713 0 .508.508 0 0 0 0 .718l2.611 2.629L.148 6.12a.51.51 0 0 0 0 .72.5.5 0 0 0 .713 0L3.83 3.852a.51.51 0 0 0 .147-.36.507.507 0 0 0-.147-.36z"/></symbol><symbol id="plus" viewBox="0 0 16 16"><path fill="#272525" d="M16 7H9V0H7v7H0v2h7v7h2V9h7z"/></symbol><symbol id="popular-1" viewBox="0 0 97 55"><g fill="#363636"><path d="M84.131 32.639V20.003c0-1.309 1.045-2.37 2.335-2.37l8.326 1.581V11.02c0-2.355-1.708-3.431-4.202-4.265L67.403.175c1.616 1.391 1.889 2.04 1.889 4.396V49.78c0 2.356-.45 4.066-1.967 5.21l23.265-7.065c2.401-.833 4.202-4.216 4.202-6.572V33.44l-8.326 1.567c-1.29.002-2.335-1.06-2.335-2.368z"/><path d="M95.129 20.979l-7.598-1.444c-1.008 0-1.824.829-1.824 1.851v9.868c0 1.023.816 1.852 1.824 1.852l7.598-1.431c1.154-.419 1.824-.829 1.824-1.852V22.83c0-1.022-.766-1.507-1.824-1.851zM67.17 4.483c0-5.08-4.232-4.459-4.232-4.459S5.832 4.738 2.838 5.145.001 9.532.001 9.532L0 45.812c0 3.743 2.599 3.753 2.599 3.753l16.477 1.403L27.212 39.3s1.109-1.828 2.505-1.828c1.397 0 2.432 1.861 2.432 1.861l9.061 13.521s18.895 1.909 22.521 1.909c3.626-.001 3.439-5.024 3.439-5.024V4.483zM12.982 37.192c-3.698 0-6.696-4.601-6.696-10.275s2.998-10.275 6.696-10.275c3.698 0 6.696 4.601 6.696 10.275s-2.998 10.275-6.696 10.275zm36.158 1.426c-4.662 0-8.441-5.239-8.441-11.701 0-6.463 3.78-11.702 8.441-11.702 4.662 0 8.442 5.239 8.442 11.702 0 6.462-3.78 11.701-8.442 11.701z"/></g></symbol><symbol id="popular-2" viewBox="0 0 86 117"><path d="M82.821 4.011H3.33A3.188 3.188 0 0 0 .142 7.199v46.413a3.187 3.187 0 0 0 3.188 3.189h79.492a3.188 3.188 0 0 0 3.189-3.189V7.199a3.189 3.189 0 0 0-3.19-3.188zM8.392 37.236h-.226a3.19 3.19 0 0 1-3.189-3.189v-7.283a3.188 3.188 0 0 1 3.189-3.188h.226v13.66zm61.231 15.172H13.341V8.402h56.282v44.006zM78.4 34.552c-2.289 0-4.146-1.855-4.146-4.147s1.856-4.147 4.146-4.147a4.146 4.146 0 1 1 0 8.294zM31.497 0h23.157v2.758H31.497zm15.111 64.861v-2.973h8.046V59.13H31.498v2.758h8.045v35.246a6.068 6.068 0 0 0-3.635 5.559V117h14.335v-14.307a6.062 6.062 0 0 0-3.636-5.557v-27.99h4.796l5.051 1.213v-6.711l-5.051 1.213h-4.795z" fill="#363636"/></symbol><symbol id="popular-3" viewBox="0 0 71 87"><g fill="#363636"><path d="M53.349 1.49c0-.736-.578-1.49-1.311-1.49H9.053C8.32 0 7.672.754 7.672 1.49v3.522h45.676V1.49zm.853 80.319h-9.597V71.426h-6.958v2.507H18.774c-.537-1.254-1.757-2.148-3.181-2.148H3.559C1.642 71.784 0 73.387 0 75.311v3.018c0 1.924 1.642 3.48 3.559 3.48h12.035c1.511 0 2.792-.896 3.269-2.326h18.785v2.326H28.13c-.533 0-1.01.437-1.01.972v3.172c0 .535.478 1.048 1.01 1.048h26.072c.533 0 .93-.513.93-1.048V82.78c0-.535-.397-.971-.93-.971zm6.464-69.419a7.037 7.037 0 0 0-6.771-5.05H7.148C3.25 7.34 0 10.449 0 14.361v46.9c0 3.912 3.25 7.121 7.148 7.121h46.747c3.898 0 7.126-3.209 7.126-7.121V50.915a23.228 23.228 0 0 0 10.001-19.164c-.001-8.079-4.132-15.181-10.356-19.361zM12.238 62.151c-3.259 0-5.901-2.65-5.901-5.921 0-3.27 2.642-5.922 5.901-5.922s5.902 2.652 5.902 5.922c0 3.271-2.643 5.921-5.902 5.921zm5.961-32.605a1.42 1.42 0 0 1-1.418 1.422h-8.94a1.42 1.42 0 0 1-1.418-1.422v-14.16a1.42 1.42 0 0 1 1.418-1.423h8.939a1.42 1.42 0 0 1 1.418 1.423v14.16zm29.563 22.312c-11.076 0-20.057-9.01-20.057-20.123s8.98-20.124 20.057-20.124c11.077 0 20.058 9.01 20.058 20.124s-8.981 20.123-20.058 20.123z"/><ellipse cx="47.762" cy="31.735" rx="12.188" ry="12.229"/><circle cx="31.562" cy="31.736" r="1.435"/><circle cx="63.963" cy="31.736" r="1.435"/><circle cx="39.109" cy="17.994" r="1.435"/><ellipse cx="56.415" cy="45.476" rx="1.43" ry="1.436"/><circle cx="55.697" cy="17.565" r="1.435"/><circle cx="39.828" cy="45.906" r="1.435"/></g></symbol><symbol id="popular-4" viewBox="0 0 107 65"><g fill="#363636"><path d="M98.967 4.074c.752 1.441 1.209 3.08 1.209 4.818v21.102c0 4.616-3.092 8.527-7.246 9.9-1.325 3.987-3.778 7.854-8.051 10.432-8.676 5.231-31.124 4.837-31.198 4.837-.078 0-22.513.395-31.189-4.837-4.216-2.545-6.708-6.347-8.042-10.279-4.418-1.209-7.756-5.251-7.756-10.053V8.893c0-1.688.427-3.282 1.139-4.693C4.17 5.109 0 6.918 0 10.434v29.983C0 50.668 11.839 64.85 53.657 64.85c41.82 0 53.657-14.182 53.657-24.433V10.434c-.001-3.684-4.576-5.494-8.347-6.36z"/><path d="M20.561 38.459h65.523c5.564 0 10.074-4.513 10.074-10.077V9.935c0-5.563-4.51-10.075-10.074-10.075H20.561c-5.564 0-10.075 4.511-10.075 10.075v18.447c0 5.564 4.511 10.077 10.075 10.077zM83.695 9.468a1.57 1.57 0 1 1 0 3.139 1.57 1.57 0 0 1 0-3.139zm0 4.039a1.569 1.569 0 1 1 0 3.138 1.569 1.569 0 0 1 0-3.138zm0 4.039a1.568 1.568 0 1 1 .001 3.137 1.568 1.568 0 0 1-.001-3.137zm0 3.827a1.57 1.57 0 1 1-.001 3.14 1.57 1.57 0 0 1 .001-3.14zm0 4.039a1.568 1.568 0 1 1 .001 3.137 1.568 1.568 0 0 1-.001-3.137zM79.656 9.468c.867 0 1.568.703 1.568 1.57a1.568 1.568 0 1 1-3.136 0c0-.868.703-1.57 1.568-1.57zm0 15.944a1.568 1.568 0 1 1 0 3.135 1.568 1.568 0 0 1 0-3.135zM75.619 9.468a1.57 1.57 0 1 1-.003 3.14 1.57 1.57 0 0 1 .003-3.14zm0 4.039a1.57 1.57 0 1 1-.003 3.139 1.57 1.57 0 0 1 .003-3.139zm0 4.039a1.569 1.569 0 1 1-.002 3.138 1.569 1.569 0 0 1 .002-3.138zm0 3.827a1.568 1.568 0 1 1 0 3.138 1.568 1.568 0 0 1 0-3.138zm0 4.039a1.569 1.569 0 1 1-.002 3.138 1.569 1.569 0 0 1 .002-3.138zM67.965 9.468c.867 0 1.568.703 1.568 1.57a1.568 1.568 0 1 1-3.136 0 1.568 1.568 0 0 1 1.568-1.57zm0 8.078a1.568 1.568 0 1 1-1.568 1.569 1.568 1.568 0 0 1 1.568-1.569zm0 3.881a1.569 1.569 0 1 1-.002 3.136 1.569 1.569 0 0 1 .002-3.136zm0 3.985a1.568 1.568 0 1 1 0 3.135 1.568 1.568 0 0 1 0-3.135zM63.926 9.468a1.57 1.57 0 1 1 0 3.14 1.57 1.57 0 0 1 0-3.14zm0 8.078a1.57 1.57 0 1 1 .001 3.139 1.57 1.57 0 0 1-.001-3.139zm0 7.866a1.57 1.57 0 1 1 .001 3.139 1.57 1.57 0 0 1-.001-3.139zM59.888 9.468a1.57 1.57 0 0 1 0 3.139 1.568 1.568 0 0 1-1.568-1.569 1.567 1.567 0 0 1 1.568-1.57zm0 4.039a1.57 1.57 0 1 1-.001 3.135 1.57 1.57 0 0 1 .001-3.135zm0 4.039a1.57 1.57 0 1 1-.001 3.14 1.57 1.57 0 0 1 .001-3.14zm0 7.866a1.57 1.57 0 0 1 0 3.137 1.569 1.569 0 0 1 0-3.137zm-8.29-15.944a1.57 1.57 0 1 1 0 3.139 1.57 1.57 0 0 1 0-3.139zm0 4.039a1.569 1.569 0 1 1 0 3.138 1.569 1.569 0 0 1 0-3.138zm0 4.039a1.568 1.568 0 1 1 .001 3.137 1.568 1.568 0 0 1-.001-3.137zm0 3.881a1.568 1.568 0 1 1 0 3.137 1.569 1.569 0 0 1 0-3.137zm0 3.985a1.568 1.568 0 1 1 .001 3.137 1.568 1.568 0 0 1-.001-3.137zm-4.039-11.905a1.568 1.568 0 1 1 0 3.136 1.568 1.568 0 0 1 0-3.136zm-8.502-.212a1.57 1.57 0 1 1-.001 3.135 1.57 1.57 0 0 1 .001-3.135zm0 4.038a1.57 1.57 0 1 1-.003 3.141 1.57 1.57 0 0 1 .003-3.141zm-4.039-8.078a1.57 1.57 0 1 1-.003 3.14 1.57 1.57 0 0 1 .003-3.14zm0 4.04a1.57 1.57 0 1 1-.003 3.139 1.57 1.57 0 0 1 .003-3.139zm0 4.038a1.57 1.57 0 1 1-.003 3.14 1.57 1.57 0 0 1 .003-3.14zm0 4.04a1.569 1.569 0 1 1-.001 3.137 1.569 1.569 0 0 1 .001-3.137zm-4.254-8.078a1.569 1.569 0 1 1 0 3.138 1.569 1.569 0 0 1 0-3.138zm0 4.038a1.57 1.57 0 1 1 0 3.139 1.57 1.57 0 0 1 0-3.139zm0 4.04a1.57 1.57 0 1 1-.001 3.14 1.57 1.57 0 0 1 .001-3.14zm0 4.039a1.568 1.568 0 1 1 .001 3.137 1.568 1.568 0 0 1-.001-3.137zM26.3 9.255zm0 4.04a1.57 1.57 0 0 1 1.571 1.568 1.57 1.57 0 0 1-3.14 0 1.57 1.57 0 0 1 1.569-1.568zm0 4.038a1.571 1.571 0 1 1 0 3.14 1.571 1.571 0 0 1 0-3.14zm0 4.04zm-4.037-8.078a1.57 1.57 0 1 1-.001 3.135 1.57 1.57 0 0 1 .001-3.135zm0 4.038a1.57 1.57 0 0 1 0 3.14 1.57 1.57 0 0 1 0-3.14z"/></g></symbol><symbol id="popular-5" viewBox="0 0 56 98"><path d="M54.494 32.197h-1.515v-4.64c0-5.052-4.087-9.186-9.082-9.186H9.082C4.086 18.372 0 22.505 0 27.557v42.868c0 5.052 4.087 9.185 9.083 9.185h34.815c4.995 0 9.082-4.133 9.082-9.185V67.01h1.515a.764.764 0 0 0 .757-.764V52.467a.765.765 0 0 0-.757-.766H52.98v-8.788h1.515c.832 0 1.514-.688 1.514-1.531v-7.654a1.529 1.529 0 0 0-1.515-1.531zm-20.412-3.109c2.926 0 5.299 2.398 5.299 5.358s-2.373 5.358-5.299 5.358-5.298-2.398-5.298-5.358 2.372-5.358 5.298-5.358zm-15.137 0c2.925 0 5.298 2.398 5.298 5.358s-2.373 5.358-5.298 5.358c-2.926 0-5.298-2.398-5.298-5.358s2.372-5.358 5.298-5.358zM5.297 49.397c0-2.959 2.371-5.358 5.298-5.358 2.926 0 5.298 2.399 5.298 5.358 0 2.959-2.373 5.358-5.298 5.358-2.927.001-5.298-2.399-5.298-5.358zm13.648 19.497c-2.926 0-5.298-2.398-5.298-5.358s2.372-5.358 5.298-5.358c2.925 0 5.298 2.398 5.298 5.358s-2.373 5.358-5.298 5.358zm1.49-19.903c0-3.382 2.711-6.124 6.055-6.124s6.055 2.742 6.055 6.124-2.711 6.124-6.055 6.124c-3.344-.001-6.055-2.742-6.055-6.124zm13.647 19.903c-2.926 0-5.298-2.398-5.298-5.358s2.372-5.358 5.298-5.358 5.299 2.398 5.299 5.358-2.373 5.358-5.299 5.358zm8.302-14.138c-2.927 0-5.298-2.399-5.298-5.358 0-2.959 2.371-5.358 5.298-5.358 2.926 0 5.298 2.399 5.298 5.358 0 2.958-2.372 5.358-5.298 5.358zM9.646 15.31h33.687c.843 0 1.432-.681 1.306-1.514L43.023 3.028l-.002-.002C42.771 1.362 41.189 0 39.506 0H13.474c-1.686 0-3.268 1.362-3.517 3.028L8.342 13.795c-.125.833.461 1.515 1.304 1.515zm33.687 67.361H9.646c-.843 0-1.429.683-1.304 1.516l1.615 10.767c.25 1.666 1.832 3.028 3.516 3.028h26.032c1.684 0 3.266-1.362 3.517-3.026v-.002l1.615-10.767c.128-.833-.461-1.516-1.304-1.516z" fill="#363636"/></symbol><symbol id="popular-6" viewBox="0 0 132 69"><g fill="#363636"><path d="M12.052.258C6.507.745 1.838 1.85.575 2.93c-.722.616-.722.616-.232 1.156.644.72 3.713 1.645 7.247 2.237 3.998.668 12.51.693 13.724.051 1.211-.668 1.624-1.414 1.624-2.981 0-1.619-.62-2.416-2.218-2.853C19.274.154 14.94 0 12.052.258zm13.722.23c-.129.283-.258 2.108-.258 4.112 0 4.061.155 3.778-2.192 3.933l-1.03.077-.13 2.545-.129 2.544-1.186.283c-2.58.668-4 2.595-3.792 5.294.128 1.927 1.03 3.341 2.579 4.087 1.109.513 1.47.538 11.246.538 5.545 0 10.137.079 10.188.18.051.13-1.11 9.408-2.58 20.64-1.444 11.23-2.682 20.997-2.708 21.666-.051 1.617.826 2.62 2.348 2.62 1.237 0 2.012-.64 2.321-1.9.13-.514 1.496-10.334 3.018-21.822 1.522-11.463 2.863-20.869 2.94-20.869.104 0 1.084 1.413 2.193 3.136 2.94 4.626 2.399 4.317 7.635 4.317h4.359v5.63l-5.133.077c-4.72.077-5.21.127-5.881.615-1.573 1.157-1.625 1.415-1.625 10.977 0 9.534.026 9.792 1.522 11.05l.851.695h31.365l.851-.696c1.496-1.257 1.52-1.515 1.52-11.05 0-9.56-.05-9.819-1.622-10.976-.671-.488-1.161-.538-5.882-.615l-5.132-.077v-5.63h4.36c5.234 0 4.693.309 7.633-4.317 1.11-1.723 2.09-3.136 2.194-3.136.076 0 1.418 9.406 2.94 20.869 1.522 11.488 2.889 21.308 3.018 21.821.31 1.26 1.082 1.902 2.321 1.902 1.521 0 2.4-1.004 2.347-2.621-.026-.67-1.264-10.436-2.71-21.666-1.468-11.232-2.63-20.51-2.577-20.64.05-.101 4.641-.18 10.19-.18 9.774 0 10.135-.025 11.243-.538 1.548-.746 2.45-2.16 2.58-4.087.206-2.699-1.212-4.626-3.792-5.294l-1.187-.283-.127-2.544-.13-2.545-1.031-.077c-2.347-.155-2.194.128-2.194-3.933 0-2.004-.128-3.829-.257-4.112-.206-.36-.543-.488-1.367-.488-.619 0-1.238.128-1.42.309-.206.205-.31 1.465-.31 3.932 0 2.467-.102 3.727-.309 3.932-.18.18-.901.308-1.65.308-1.625 0-1.65.052-1.65 3.11v2.287H32.48v-2.287c0-3.058-.024-3.11-1.65-3.11-.748 0-1.47-.129-1.65-.308-.207-.205-.31-1.465-.31-3.932 0-2.467-.103-3.727-.31-3.932-.18-.18-.8-.309-1.418-.309-.825 0-1.16.128-1.368.488zm42.843 40.12c2.889.899 5.392 3.393 6.166 6.168.439 1.543.31 4.216-.284 5.784-.696 1.875-2.685 4.01-4.565 4.935-1.29.642-1.754.719-3.921.719s-2.631-.077-3.92-.719c-1.885-.926-3.87-3.06-4.567-4.935-.592-1.568-.722-4.24-.283-5.784.748-2.723 3.25-5.27 6.061-6.168 2.012-.642 3.3-.642 5.313 0z"/><path d="M63.794 44.438c-2.037.925-3.507 3.649-3.069 5.73.774 3.677 4.823 5.553 7.996 3.702 1.985-1.158 2.99-3.547 2.45-5.783-.568-2.39-2.734-4.138-5.158-4.138-.646 0-1.626.232-2.22.489zM36.092.154c-3.92.668-4.513 1.131-4.513 3.444 0 1.825.463 2.416 2.268 2.956 1.55.462 7.172.514 10.5.128 6.86-.822 11.321-2.544 9.698-3.752-1.265-.9-4.902-1.876-9.054-2.39-2.475-.308-7.996-.54-8.9-.386zm53.392.104C83.165.848 77.62 2.339 77.62 3.444c0 1.722 7.84 3.47 15.63 3.495 5.804 0 7.196-.642 7.196-3.34 0-1.825-.619-2.622-2.373-3.085C96.423.103 92.398 0 89.484.258zm23.292.025c-1.78.231-3.018.77-3.43 1.491-.387.77-.31 2.904.154 3.572.928 1.31 1.652 1.465 7.068 1.465 3.661 0 5.802-.129 7.867-.488 3.534-.592 6.603-1.517 7.248-2.237.49-.54.49-.54-.233-1.156-1.34-1.13-5.958-2.185-11.916-2.672-3.481-.283-4.488-.283-6.758.025z"/></g></symbol><symbol id="radio-off" viewBox="0 0 25 25"><path d="M12.5 4c4.687 0 8.5 3.813 8.5 8.5 0 4.687-3.813 8.5-8.5 8.5C7.813 21 4 17.187 4 12.5 4 7.813 7.813 4 12.5 4m0-4C5.597 0 0 5.597 0 12.5S5.597 25 12.5 25 25 19.403 25 12.5 19.403 0 12.5 0z"/></symbol><symbol id="radio-on" viewBox="0 0 25 25"><path d="M12.5 4c4.687 0 8.5 3.813 8.5 8.5 0 4.687-3.813 8.5-8.5 8.5C7.813 21 4 17.187 4 12.5 4 7.813 7.813 4 12.5 4m0-4C5.597 0 0 5.597 0 12.5S5.597 25 12.5 25 25 19.403 25 12.5 19.403 0 12.5 0z"/><circle cx="12.5" cy="12.5" r="4.5"/></symbol><symbol id="slider-button-empty" viewBox="0 0 23 23"><path d="M11.5 2c5.238 0 9.5 4.262 9.5 9.5S16.738 21 11.5 21 2 16.738 2 11.5 6.262 2 11.5 2m0-2C5.149 0 0 5.149 0 11.5 0 17.852 5.149 23 11.5 23 17.852 23 23 17.852 23 11.5 23 5.149 17.852 0 11.5 0z"/></symbol><symbol id="slider-button" viewBox="0 0 23 23"><path d="M11.5 2c5.238 0 9.5 4.262 9.5 9.5S16.738 21 11.5 21 2 16.738 2 11.5 6.262 2 11.5 2m0-2C5.149 0 0 5.149 0 11.5 0 17.852 5.149 23 11.5 23 17.852 23 23 17.852 23 11.5 23 5.149 17.852 0 11.5 0z"/><path d="M11.5 9.004a2.5 2.5 0 0 1 2.496 2.496 2.5 2.5 0 0 1-2.496 2.496A2.5 2.5 0 0 1 9.004 11.5 2.5 2.5 0 0 1 11.5 9.004m0-2a4.496 4.496 0 1 0 0 8.992 4.496 4.496 0 0 0 0-8.992z"/></symbol><symbol id="warranty" viewBox="0 0 171 195"><g fill="#FFF"><path d="M77.694 174.636c-.104-.13-10.495-12.996-12.609-15.76-1.321-1.727-3.307-2.678-5.593-2.678-2.56 0-4.836 1.17-5.512 1.553l-5.486 2.743c-1.773-.479-5.587-1.95-9.28-6.268-3.284-3.839-3.261-8.986-3.086-11.099l5.893-5.893c3.093-2.717 2.452-6.516 1.246-8.431l-.219-.311s-12.862-16.221-14.666-18.498c-.989-1.249-2.475-1.938-4.184-1.938-2.849 0-5.879 1.975-6.756 2.592-10.885 7.749-11.586 14.562-11.631 15.313l-.024.414.074.409c6.412 35.726 26.026 51.137 35.453 58.543 1.148.901 2.14 1.681 2.854 2.306C50.731 193.38 57.93 194 60.721 194c2.375-.001 4.48-.405 6.089-1.171 4.366-2.078 9.425-8.01 10.872-9.778 2.501-3.059 1.283-6.599.168-8.208l-.156-.207zm-13.893 11.873c-.499.237-1.57.491-3.081.491-1.56 0-7.032-.334-11.944-4.632-.854-.747-1.913-1.579-3.139-2.543-8.694-6.83-26.729-21.001-32.78-53.684.289-.979 1.829-4.938 8.62-9.771a11.385 11.385 0 0 1 2.119-1.142l13.502 17.03-7.528 7.527-.203 1.055c-.081.422-1.911 10.409 4.527 17.937 6.286 7.349 13.25 8.667 14.583 8.856l1.082.154 7.644-3.823.218-.118c.281-.167 1.335-.648 2.071-.648.036 0 .065.001.088.003 2.149 2.8 11.105 13.897 12.5 15.624a.03.03 0 0 0 .004.01c-2.562 3.095-6.173 6.669-8.283 7.674zM137.85 65.824c5.512-5.177 7.156-11.975 5.033-20.783a2.502 2.502 0 0 0-4.103-1.272l-8.221 7.403c-1.438-.795-3.676-2.451-4.465-5.33l6.803-6.729a2.502 2.502 0 0 0 .104-3.446l-.186-.207a2.473 2.473 0 0 0-.678-.533c-.16-.086-3.988-2.116-8.824-2.116-4.709 0-8.859 1.921-12.002 5.556-6 6.938-4.557 15.042-3.543 18.471l-3.488 3.488-10.284-9.236 4.717-3.266L78.671 34.1 68.07 44.703l13.724 20.041 3.266-4.717 9.237 10.282-3.295 3.294c-1.5-.478-3.883-1.052-6.663-1.052-5.429 0-10.236 2.174-13.962 6.359-.271.329-6.599 8.165-2.751 18.621a2.501 2.501 0 0 0 3.993 1.019l8.295-7.259c1.323.567 3.622 2.08 4.659 5.925l-7.384 7.516a2.498 2.498 0 0 0 1.218 4.187c.11.025 2.724.623 6.175.623 6.84 0 12.112-2.271 15.245-6.567 3.363-4.613 4.094-9.433 3.994-13.088l16.217 16.217.172.158c1.521 1.26 4.318 2.725 7.451 2.725 2.227 0 4.625-.741 6.852-2.824l5.518-5.516.102-.104c5.012-5.358 2.258-11.698.1-14.302l-16.945-16.959c1.027.106 2.148.181 3.322.181 4.888-.001 8.669-1.225 11.24-3.639zM84.551 51.978l-2.734 3.949-7.276-10.625 4.731-4.732 10.625 7.276-3.95 2.734 14.792 13.286-4.094 4.093 1.191-1.192-13.285-14.789zm13.562 33.524c.109.313 2.615 7.746-2.328 14.527-2.77 3.798-7.748 4.526-11.4 4.512l4.703-4.787c.566-.576.82-1.391.68-2.187-1.791-10.147-9.745-11.484-10.083-11.536a2.513 2.513 0 0 0-2.027.589l-6.204 5.428c-.522-5.56 2.413-9.489 2.759-9.932 2.721-3.03 6.127-4.566 10.125-4.566 3.515 0 6.231 1.211 6.249 1.22a2.501 2.501 0 0 0 2.818-.501l19-19a2.493 2.493 0 0 0 .527-2.756c-.035-.083-3.494-8.34 2.158-14.876 2.195-2.539 4.961-3.826 8.221-3.826 1.23 0 2.383.183 3.365.421l-5.047 4.993a2.5 2.5 0 0 0-.725 2.08c1.012 8.3 8.969 11.077 9.307 11.191a2.503 2.503 0 0 0 2.473-.511l6.049-5.447c.373 4.864-1.02 8.554-4.309 11.642-2.008 1.887-5.359 2.283-7.818 2.283-3.689 0-6.951-.865-6.982-.873a2.502 2.502 0 0 0-2.43.653l-18.5 18.667a2.521 2.521 0 0 0-.581 2.592zm5.502 1.842zm-.181-1.121zm33.091 10.856l-5.479 5.476c-3.248 2.98-6.9.432-7.576-.087l-18.643-18.645 14.941-15.075-2.035 2.053 18.707 18.706c.46.592 3.097 4.287.085 7.572zm-15.209-28.054zm-.843-.143l.066.012a4.19 4.19 0 0 1-.066-.012z"/><path d="M104.162 6.002c-36.408 0-65.922 29.514-65.922 65.922 0 33.517 25.02 61.172 57.398 65.354v26.224s57.439-21.243 71.969-73.622c.078-.283.139-.538.211-.812.113-.424.225-.85.33-1.277.064-.263.119-.514.178-.769a66.07 66.07 0 0 0 1.758-15.098c0-36.408-29.514-65.922-65.922-65.922zm57.348 79.422l-.006.027-.006.027-.029.13c-.039.17-.076.339-.119.515-.094.376-.191.751-.301 1.161l-.104.4a9.602 9.602 0 0 1-.082.324c-5.564 20.056-18.52 37.7-38.506 52.442-7.373 5.438-14.408 9.464-19.719 12.175v-21.502l-6.104-.788c-29.243-3.777-51.295-28.889-51.295-58.412 0-32.49 26.432-58.922 58.922-58.922 32.488 0 58.922 26.432 58.922 58.922a59.082 59.082 0 0 1-1.573 13.501z"/></g><path fill="#3A3A3A" d="M54.583 187.998c-2.791 0-9.989-.62-16.554-6.364-.714-.625-1.706-1.404-2.854-2.306-9.426-7.406-29.041-22.817-35.453-58.543l-.074-.409.024-.414c.044-.752.746-7.564 11.631-15.313.877-.617 3.907-2.592 6.756-2.592 1.708 0 3.194.688 4.184 1.938 1.804 2.277 14.666 18.498 14.666 18.498l.219.311c1.206 1.915 1.847 5.714-1.246 8.431l-5.893 5.893c-.175 2.112-.198 7.26 3.086 11.099 3.692 4.317 7.507 5.789 9.28 6.268l5.486-2.743c.676-.383 2.952-1.553 5.512-1.553 2.286 0 4.272.951 5.593 2.678 2.114 2.764 12.504 15.63 12.609 15.76l.155.207c1.115 1.609 2.333 5.149-.168 8.208-1.447 1.769-6.505 7.7-10.872 9.778-1.607.763-3.712 1.167-6.087 1.168zM6.72 120.14c6.051 32.683 24.086 46.854 32.78 53.684 1.226.964 2.285 1.796 3.139 2.543 4.912 4.298 10.384 4.632 11.944 4.632 1.511 0 2.582-.254 3.081-.491 2.11-1.005 5.722-4.579 8.284-7.674l-.004-.01C64.55 171.097 55.593 160 53.444 157.2a1.063 1.063 0 0 0-.088-.003c-.736 0-1.79.481-2.071.648l-.218.118-7.644 3.823-1.082-.154c-1.333-.189-8.297-1.508-14.583-8.856-6.438-7.527-4.608-17.515-4.527-17.937l.203-1.055 7.528-7.527-13.502-17.03c-.611.237-1.467.688-2.119 1.142-6.793 4.833-8.333 8.792-8.621 9.771z"/><path fill="#F0C42E" d="M78.443 103.54c-3.452 0-6.065-.598-6.175-.623a2.5 2.5 0 0 1-1.218-4.187l7.384-7.516c-1.037-3.845-3.336-5.357-4.659-5.925l-8.295 7.259a2.503 2.503 0 0 1-3.993-1.018c-3.848-10.457 2.48-18.293 2.751-18.622 3.726-4.185 8.533-6.359 13.962-6.359 2.78 0 5.162.574 6.663 1.052l16.766-16.765c-1.013-3.43-2.457-11.534 3.543-18.471 3.143-3.634 7.293-5.556 12.002-5.556 4.837 0 8.664 2.029 8.825 2.116.255.137.484.317.677.533l.186.207c.89.993.845 2.508-.104 3.446l-6.803 6.729c.789 2.879 3.028 4.535 4.465 5.33l8.222-7.403a2.5 2.5 0 0 1 4.103 1.272c2.123 8.809.478 15.606-5.033 20.783-2.57 2.414-6.353 3.638-11.242 3.638-2.789 0-5.324-.407-6.839-.714L97.127 79.399c.729 3.181 1.631 10.62-3.439 17.574-3.133 4.296-8.405 6.567-15.245 6.567zm-.196-5.001c3.651.015 8.631-.714 11.4-4.512 4.944-6.781 2.438-14.214 2.329-14.527a2.518 2.518 0 0 1 .582-2.593l18.5-18.667a2.501 2.501 0 0 1 2.43-.653c.03.008 3.293.873 6.982.873 2.458 0 5.811-.396 7.818-2.283 3.288-3.088 4.681-6.778 4.309-11.642l-6.049 5.447a2.505 2.505 0 0 1-2.473.511c-.338-.114-8.295-2.891-9.307-11.191a2.496 2.496 0 0 1 .724-2.08l5.047-4.993a14.37 14.37 0 0 0-3.365-.421c-3.259 0-6.024 1.288-8.221 3.826-5.651 6.536-2.192 14.793-2.157 14.876.405.94.196 2.033-.528 2.756l-19 19a2.5 2.5 0 0 1-2.817.501c-.018-.008-2.735-1.22-6.25-1.22-3.998 0-7.404 1.536-10.125 4.566-.347.442-3.282 4.372-2.759 9.932l6.204-5.428a2.506 2.506 0 0 1 2.027-.589c.337.052 8.291 1.389 10.082 11.536a2.498 2.498 0 0 1-.679 2.187l-4.704 4.788z"/><path d="M78.921 54.025l9.237 10.282 3.54-3.541-13.285-14.79-2.735 3.949-7.276-10.624 4.732-4.732 10.625 7.276-3.95 2.734L94.6 57.865l3.541-3.541-10.283-9.236 4.717-3.266-20.042-13.724-10.601 10.603 13.724 20.041zm38.226 9.255a37.19 37.19 0 0 1-3.517-.534l-2.034 2.053 18.706 18.706c.46.592 3.097 4.287.084 7.572l-5.478 5.476c-3.248 2.98-6.901.432-7.576-.087L98.69 77.821l-1.563 1.578c.245 1.07.505 2.63.555 4.485l16.217 16.218.173.158c1.521 1.26 4.318 2.725 7.45 2.725 2.228 0 4.625-.741 6.853-2.824l5.518-5.516.102-.103c5.012-5.358 2.257-11.699.099-14.303L117.147 63.28z" fill="#3A3A3A"/><path fill="#3A3A3A" d="M98.023 7c32.489 0 58.922 26.432 58.922 58.922 0 4.508-.529 9.05-1.573 13.5l-.006.027-.007.027-.029.13c-.038.17-.076.339-.118.515-.094.376-.191.751-.302 1.161l-.103.4c-.026.108-.054.216-.083.324-5.564 20.056-18.52 37.7-38.506 52.442-7.373 5.438-14.408 9.464-19.719 12.175v-21.502l-6.104-.788c-29.243-3.777-51.294-28.889-51.294-58.412C39.102 33.432 65.534 7 98.023 7m0-7C61.616 0 32.102 29.514 32.102 65.922c0 33.517 25.02 61.172 57.398 65.354V157.5s57.439-21.243 71.97-73.622c.078-.283.138-.538.21-.812.114-.424.225-.85.331-1.277.063-.263.119-.514.177-.769a66.014 66.014 0 0 0 1.758-15.098C163.945 29.514 134.432 0 98.023 0z"/></symbol></svg>